<?xml version="1.0" encoding="utf-8"?>
<!-- Generator: Adobe Illustrator 18.0.0, SVG Export Plug-In . SVG Version: 6.00 Build 0)  -->
<!DOCTYPE svg PUBLIC "-//W3C//DTD SVG 1.1//EN" "http://www.w3.org/Graphics/SVG/1.1/DTD/svg11.dtd">
<svg version="1.1" id="图层_1" xmlns="http://www.w3.org/2000/svg" xmlns:xlink="http://www.w3.org/1999/xlink" x="0px" y="0px"
	 viewBox="0 0 566.9 354.3" enable-background="new 0 0 566.9 354.3" xml:space="preserve">
<g>
	<path fill="#0F3481" d="M558.6,11.3l-34.7,19.3l-137.7,7.2c-2.9,0.2-5.6,1.4-7.6,3.4l-62.9,65c-17.6,18.2-46.8,18.2-64.5,0
		l-62.9-65c-2-2.1-4.7-3.3-7.6-3.4L43.1,30.6L8.3,11.3C7,10.6,7.6,8.5,9.1,8.6l179.8,11.3c6.4,0.4,12.6,2.6,17.9,6.4l76.7,55.7
		l76.7-55.7c5.2-3.8,11.4-6,17.9-6.4L557.8,8.6C559.3,8.5,559.9,10.6,558.6,11.3z M226.8,93.5l-71.9-3.6c-1.5-0.1-2.1,1.9-0.8,2.7
		l13.4,7.4l72.2,3.6l-7.2-7.5C231,94.5,229,93.6,226.8,93.5z M206.3,72.3l-91.7-4.7c-1.5-0.1-2.1,1.9-0.8,2.7l19.2,10.7l89,4.5
		L212,74.9C210.5,73.3,208.4,72.4,206.3,72.3z M185,50.2L71.5,43.6c-1.5-0.1-2.1,1.9-0.8,2.7l17.8,9.9l111.6,6.5l-9.5-9.8
		C189.1,51.2,187.1,50.3,185,50.2z M327.2,103.6l72.2-3.6l13.4-7.4c1.3-0.7,0.7-2.7-0.8-2.7l-71.9,3.6c-2.2,0.1-4.2,1-5.7,2.6
		L327.2,103.6z M344.8,85.4l89-4.5l19.2-10.7c1.3-0.7,0.7-2.7-0.8-2.7l-91.7,4.7c-2.1,0.1-4.2,1-5.7,2.6L344.8,85.4z M376.3,52.8
		l-9.5,9.8l111.6-6.5l17.8-9.9c1.3-0.7,0.7-2.7-0.8-2.7L382,50.2C379.8,50.3,377.8,51.2,376.3,52.8z M318.9,112.1
		c-9.6,9.2-22.1,14.2-35.4,14.2c-13.3,0-25.8-5-35.4-14.2l0,0l-43.1-2.1c0,0.1,0,0.1,0.1,0.2l0,0c13.4,30,43.5,50.8,78.5,50.8h0
		c35,0,65.1-21,78.5-51L318.9,112.1L318.9,112.1z"/>
	<path fill="#D71718" d="M316.1,105.8l-32.7-23.7l-32.7,23.7l12.5-38.4l-32.7-23.7H271l12.5-38.4l12.5,38.4h40.4l-32.7,23.7
		L316.1,105.8z M245.9,117.7l-7.6,4.9l-6.7-6l2.3,8.7l-7.8,4.6l9,0.5l1.9,8.8l3.3-8.4l9,0.9l-7-5.7L245.9,117.7L245.9,117.7z
		 M321.1,118.4l3.6,8.3l-7,5.7l9-0.8l3.2,8.4l2-8.8l9-0.5l-7.7-4.6l2.3-8.7l-6.8,5.9L321.1,118.4L321.1,118.4z M269.6,130.4
		l-4.6,7.8l-8.7-2.4l5.9,6.8l-4.9,7.5l8.3-3.5l5.6,7l-0.8-9l8.4-3.2l-8.8-2L269.6,130.4L269.6,130.4z M297.8,130.3l-0.5,9l-8.8,2
		l8.4,3.3l-0.9,9l5.7-7l8.3,3.6l-4.9-7.6l6-6.8l-8.7,2.3L297.8,130.3L297.8,130.3z"/>
</g>
<g>
	<path fill="#040000" d="M84,178.7c0.3,0,0.5,0,0.8,0c2-0.1,3.9-0.2,5.8-0.3c2.2-0.1,4.4-0.3,6.6-0.1c0.9,0.1,1.8,0,2.6,0.2
		c0.7,0.2,1.5,0.2,2.1,0.7c0.5,0.4,0.9,0.9,1.2,1.6c0.2,0.6,0.4,1.3,0.2,1.9c-0.1,0.6-0.1,1.2-0.3,1.8c-0.2,0.6-0.1,1.2-0.2,1.8
		c0,0.2,0.1,0.5-0.3,0.6c-0.2,0-0.1,0.3-0.1,0.5c0,1-0.2,2-0.5,3c-0.1,0.4-0.1,0.9-0.2,1.3c-0.1,0.6-0.3,1.1-0.3,1.7
		c0,0.8-0.4,1.5-0.8,2.2c-0.3,0.5-0.5,1-0.6,1.5c-0.2,0.6-0.6,1.2-1,1.6c-0.9,0.8-1.7,1.6-2.6,2.4c-0.5,0.5-1,1.1-1.8,1.4
		c-0.3,0.1-0.7,0.4-0.7,0.8c0,0.1,0,0.2-0.1,0.2c-1,0.4-1.8,1.2-2.5,1.9c-0.3,0.3-0.7,0.7-1.2,0.9c-0.5,0.3-0.8,0.5-0.8,1.2
		c0,0.2,0.1,0.4-0.2,0.5c0,0-0.1,0.2,0,0.2c0.4,0.6,0.2,1.5,0.6,2.1c0.2,0.3,0.2,0.5,0.2,0.8c0,0.2-0.1,0.5,0.2,0.7
		c0.1,0,0.1,0.3,0.1,0.3c-0.4,0.4,0,1.1-0.4,1.5c-0.3,0.4-0.7,0.7-1,1.1c-0.7,0.8-1.5,1.4-2.3,2.2c-0.8,0.8-1.5,1.7-2.3,2.4
		c-0.4,0.3-1.1,0.6-1.1,1.3c0,0.7-0.1,1.3-0.1,2c0,0.3,0.2,0.7-0.3,0.8c-0.2,0.1-0.1,0.4-0.1,0.6c0.1,2.9,0.3,5.9,0.3,8.8
		c-0.1,2.1,0.2,4.3,0,6.4c-0.2,2,0.2,4,0,6c-0.2,1.3,0.1,2.6-0.1,3.8c-0.2,1.2,0.1,2.3-0.1,3.5c-0.2,1.5,0.1,3-0.1,4.4
		c-0.1,0.9,0.1,1.8-0.1,2.7c-0.3,1.5,0.1,3-0.1,4.4c-0.2,1.3,0.1,2.6-0.1,3.9c-0.1,0.7,0.1,1.5-0.2,2c-0.5,0.7-0.1,1.4-0.4,2.1
		c-0.2,0.5-0.4,1.1-0.7,1.6c-0.2,0.4-0.5,0.7-0.8,1.1c0,0-0.1,0.1-0.1,0.1c-0.6-0.1-1.1,0.4-1.6,0.5c-0.6,0.1-1.2,0.1-1.8-0.3
		c-0.2-0.1-0.4-0.1-0.5-0.2c-0.5-0.2-1.1-0.4-1.6-0.7c-0.8-0.5-1.5-0.9-2.3-1.4c-0.7-0.4-1.3-0.9-2.2-1.2c-0.2,0-0.3-0.5-0.3-0.7
		c0-1.2-0.8-2.2-0.8-3.4c-0.6-0.5-0.6-1.3-0.5-1.9c0.1-2.2-0.1-4.3-0.1-6.5c0-0.2-0.1-0.4,0.2-0.5c0.1,0,0.1-0.2,0.1-0.3
		c0-0.1,0-0.2,0-0.2c-0.2-3.9-0.3-7.9-0.2-11.8c0-2.2-0.2-4.3,0-6.4c0.2-1.4,0-2.8,0-4.2c0-0.3,0.1-0.6-0.2-0.8c0,0-0.1-0.2,0-0.2
		c0.3-0.6-0.2-1.3-0.1-1.9c0.1-0.7,0-1.4-0.1-2.1c0-0.7-0.1-1.4-0.1-2.1c0-0.4-0.5-0.7-0.3-1.1c0.2-0.3,0.1-0.5,0-0.7
		c-0.3-0.9-0.5-1-1.3-0.5c-0.6,0.4-1.2,0.6-1.9,0.8c-0.6,0.1-1.1,0.2-1.7,0.2c-0.3,0-0.4,0.3-0.7,0.3c-0.7,0-1.2-0.3-1.8-0.6
		c-0.4-0.2-0.7-0.2-1.1-0.4c-0.6-0.2-1.3-0.2-1.9-0.4c-0.7-0.3-1.6-0.2-2.1-0.8c-0.3-0.3-0.6-0.7-0.8-1.1c-0.1-0.3-0.4-0.5-0.6-0.7
		c-0.6-0.6-1.3-1.1-1.6-1.8c-0.3-0.5-0.7-0.9-0.9-1.5c-0.1-0.4-0.7-0.4-0.8-0.9c-0.1-0.6-0.5-1.1-0.7-1.7c-0.3-0.7-0.4-1.4-1-2
		c-0.3-0.3-0.4-0.7-0.6-1.1c-0.6-1.4-1.4-2.8-2.2-4.1c-0.1-0.2,0-0.5-0.1-0.7c-0.6-0.9-0.6-2-1-3c-0.2-0.6-0.2-1.2-0.5-1.6
		c-0.7-0.7-0.3-1.7-0.8-2.4c-0.2-0.4-0.2-1-0.3-1.5c-0.2-0.9-0.6-1.8-1.1-2.5c-0.4-0.7-1-1.3-1.7-1.8c-0.2-0.1-0.2-0.2-0.2-0.4
		c0-0.2,0-0.5,0-0.7c-0.2-1.2,0.4-2.1,1.1-3c0.6-0.7,1.5-1.1,2.4-1.3c0.7-0.2,1.3-0.6,1.9-1c0.3-0.2,0.7-0.3,1-0.4
		c0.7-0.3,1.5-0.4,2.1-0.9c0.3-0.2,0.9-0.1,1.3-0.2c0.5-0.1,1,0.2,1.4-0.3c0.1-0.2,0.7,0,1.1,0c0.6,0,1.2,0,1.6-0.4
		c0.4-0.4,1-0.5,1.3-1.1c0.1-0.2,0.6-0.4,1-0.6c0.7-0.5,1.4-1,1.9-1.7c0,0,0.1-0.1,0.2-0.1c1.1-0.2,2-0.8,2.9-1.3
		c0.2-0.1,0.4,0,0.7-0.1c0.7-0.2,1.3-0.7,2.1-0.9c0.1,0,0.2-0.1,0.2-0.2c0.5-1.1,1.5-1.9,2.2-2.8c0.2-0.3,0.4-0.6,0.4-1
		c0-0.6-0.2-1.2,0-1.7c0.3-1.3-0.1-2.7,0.1-4c0.2-1.3-0.1-2.6,0.1-3.8c0.2-0.9-0.1-1.9,0.2-2.8c0.2-0.8,0.4-1.5,0.8-2.3
		c0.7-1.2,1.6-1.5,2.8-1.6c0.8-0.1,1.6,0.4,2.3,0.9c0.7,0.4,1.4,0.9,2.1,1.4c0.7,0.5,1.5,0.9,2.1,1.6c0.5,0.7,0.9,1.4,1.5,2.1
		c0.3,0.3,0.3,0.7,0.4,1c0.1,0.9,0.5,1.7,0.7,2.6c0.1,0.7,0.2,1.4,0.2,2.1c0,1.3,0.5,2.6,0.4,4c0,0.3,0.3,0.7,0.3,1.1
		c0,0.3,0.3,0.2,0.5,0.2C82.5,178.7,83.2,178.7,84,178.7z M67.4,203c-0.1-1.4-0.1-3.1-0.4-4.8c-0.2-0.8-1.2-1.4-1.9-1
		c-0.3,0.2-0.7,0.3-1.1,0.4c-0.9,0.1-1.6,0.7-2.3,1.3c-0.6,0.5-0.3,1.2-0.3,1.9c0,0.3,0.2,0.6-0.1,0.7c-0.3,0.2-0.2,0.4-0.2,0.6
		c0,0.6,0.2,1.1,0.4,1.7c0.2,0.6,0.2,1.4,0.3,2.1c0,0.5,0,1,0.3,1.4c0.2,0.2,0.2,0.5,0.3,0.7c0.2,0.3,0.3,0.7,0.4,1
		c0.2,0.6,0.5,1.1,0.7,1.6c0.3,0.8,0.6,1.6,1,2.3c0.2,0.4,0.6,0.7,0.8,1c0.1,0.2,0.1,0.4,0.4,0.4c0.3,0,0.5-0.2,0.6-0.4
		c0.4-0.8,0.9-1.7,1.2-2.6c0.2-0.5,0.9-0.9,0.3-1.6c-0.1-0.1,0.1-0.2,0.1-0.3c0.2-0.4,0.2-0.8-0.1-1.2c-0.1-0.2-0.2-0.4-0.1-0.5
		c0.1-0.5-0.1-1.1-0.1-1.6C67.5,205.2,67.5,204.2,67.4,203z M83.1,193.6c0-0.2,0-0.3,0-0.5c0-0.4-0.3-0.4-0.4-0.3
		c-1,0.7-2,1.3-2.7,2.4c-0.3,0.5-0.8,1-1.1,1.5c-0.4,0.6-0.2,1.3-0.1,2c0,0.3,0.5,0.1,0.8,0.4c0.1,0.1,0.4-0.2,0.7-0.2
		c0.8,0,1.7-0.8,1.8-1.6c0-0.4,0.2-0.7,0.4-1.1C82.7,195.4,83.1,194.6,83.1,193.6z"/>
	<path fill="#040000" d="M336.6,222.8c-0.3-1.3,0.7-2,1.6-2.7c0.4-0.3,0.8-0.5,1.3-0.6c0.2,0,0.1-0.3,0.3-0.5
		c0.9-0.6,1.8-1.3,2.7-1.8c0.6-0.3,1.1-0.7,1.6-1c0,0,0.1-0.1,0.1-0.1c0.8,0,1.1-0.6,1.7-1c0.3-0.2,0.7-0.5,0.6-1
		c-0.1-0.5,0-1-0.1-1.4c-0.1-0.5-0.2-1.1-0.5-1.6c-0.2-0.4-0.3-0.8-0.3-1.2c0-0.9-0.5-1.8-0.4-2.8c0.1-0.8,0.5-1.5,0.8-2.2
		c0.1-0.2,0.4-0.3,0.7-0.5c0.5-0.2,0.9-0.7,1.6-0.8c0.4,0,0.8,0.2,1-0.4c0,0,0.3,0,0.3,0c0.3,0.6,0.9,0.4,1.2,0.4
		c0.8,0,1.5,0.5,2.4,0.5c0.5,0,1.1,0.6,1.5,1c0.4,0.4,0.8,0.9,1.2,1.4c0.2,0.4,0.8,0.2,1.2,0.3c1.3,0.3,2.6,0.1,3.9,0.3
		c0.7,0.1,1.4,0.1,2,0.2c0.7,0.2,1.5,0.4,1.9,0.9c0.7,0.8,1.7,1.5,1.7,2.6c0,0.8,0.3,1.8-0.2,2.5c-0.6,0.8-0.9,1.8-1.5,2.6
		c-0.5,0.7-0.8,1.5-1.3,2.1c-0.4,0.5-0.7,1-1,1.5c-0.3,0.7-0.6,1.5-0.8,2.2c-0.1,0.3,0.2,0.5,0.3,0.7c0.3,0.9,1,1.6,1.2,2.6
		c0.8,0.3,0.5,1.3,1.1,1.7c0,0.9,0.7,1.5,1,2.3c0.2,0.5,0.5,1,0.7,1.6c0.1,0.2,0.2,0.8,0.7,0.8c0.3,0,0.2,0.3,0.3,0.5
		c0.4,0.9,0.9,1.6,1.4,2.4c0.4,0.6,0.5,1.4,1.2,1.8c0.1,0.1,0.2,0.3,0.3,0.5c0.6,1.1,1.3,2.1,2,3.1c0.3,0.5,0.7,0.8,1.1,1.2
		c0.4,0.4,0.6,1,1.1,1.4c0.7,0.4,1,1.2,1.7,1.6c0.1,0.1,0.1,0.3,0.1,0.4c0,0.2,0.1,0.4,0.2,0.4c0.4,0.1,0.6,0.2,0.6,0.7
		c0,0.4,0.3,0.2,0.5,0.3c0.7,0.6,1.4,1.3,2.2,1.8c0.6,0.4,1,1,1.8,1.3c0.2,0.1,0.4,0.3,0.5,0.5c0.6,0.6,1.5,0.9,2,1.6
		c0.7,0.8,1.7,1.4,1.6,2.7c-0.1,1.1,0,2.3,0.1,3.5c0,0.6-0.2,1.2-0.4,1.8c-0.2,0.8-0.7,1.4-1.1,2.1c-0.2,0.5-0.7,1.1-1.4,1.3
		c-0.2,0-0.2,0.2-0.3,0.2c-0.9,0.8-1.8,1.3-3,1.3c-0.2,0-0.4-0.1-0.5,0.2c-0.1,0.1-0.3,0.1-0.4,0c-0.5-0.3-1.1-0.5-1.7-0.4
		c-0.5,0-0.6-0.5-1-0.6c-0.4-0.2-0.8-0.5-1.1-0.8c-0.4-0.4-1-0.6-1.5-1.1c-0.6-0.6-1.3-1.1-1.9-1.5c-1.1-0.6-1.9-1.6-2.8-2.4
		c-1.5-1.3-2.8-2.8-4.3-4.1c-0.8-0.7-1.4-1.6-2.1-2.3c-0.4-0.4-0.9-0.7-1.2-1.2c-0.3-0.5-0.9-0.8-1.1-1.4c-0.2-0.6-0.7-1.3-1.3-1.8
		c-0.2-0.2-0.1-0.3-0.2-0.5c-0.4-0.6-0.8-1.3-1.2-1.9c-0.5-0.7-0.8-1.5-1.2-2.2c-0.6-0.9-0.9-1.9-1.3-2.8c-0.4-0.9-0.7-1.8-1.1-2.6
		c-0.3-0.6-0.7-1.2-0.7-1.8c0-0.5-0.4-0.8-0.6-1.2c-0.1-0.3-0.2-0.5-0.2-0.8c0-0.7-0.5-1.3-0.6-2c0-0.8-0.7-1.5-0.7-2.3
		c0-0.3-0.5-0.3-0.6-0.6c-0.1-0.2-0.3-0.2-0.6-0.1c-0.4,0.1-0.9,0.2-1.2,0.4c-1.1,0.6-2.3,0.9-3.3,1.5c-0.9,0.5-1.9,0.6-2.9,0.5
		c-0.3,0-0.6-0.2-0.8-0.4c-0.7-0.6-1.4-1.2-2-1.8c-0.3-0.3-0.7-0.7-0.9-1.1c-0.3-0.6-0.8-1-1-1.7
		C336.7,224.6,336.6,223.8,336.6,222.8z M327,260.5c0.5,0,1.2-0.1,1.5-0.3c0.8-0.7,1.8-0.8,2.5-1.7c0.6-0.9,1.4-1.7,1.5-2.9
		c0-0.5,0.2-1.1,0.3-1.5c0.2-0.7,0.3-1.5,0.6-2.3c0.1-0.3,0.3-0.6,0.3-1c-0.1-1.4-0.2-2.9,0.4-4.2c0.3-0.6,0.8-1.2,0.7-2
		c0,0,0.1,0,0.2-0.1c0.3-0.6,0.7-1.1,1-1.7c0.2-0.4,0.3-1,0.6-1.3c0.7-0.5,0.6-1.3,1-1.9c0.4-0.7,0.7-1.4,1-2.2
		c0.6-1.6,1.6-3.1,2.1-4.8c0.2-0.8,0-1.4-0.2-2.1c-0.1-0.2-0.2-0.3-0.4-0.3c-0.6,0-1.1,0.4-1.7,0.5c-0.3,0.1-0.8-0.1-1,0.2
		c-0.4,0.4-1,0.5-1.4,0.6c-1,0.3-1.8,0.9-2.4,1.6c-0.8,0.8-1.9,1.4-2.2,2.6c0,0.1-0.1,0.2-0.2,0.1c-0.5-0.1-0.7,0.3-0.8,0.5
		c-0.3,0.6-0.8,0.9-1.1,1.4c-0.2,0.3-0.5,0.6-0.8,0.9c-0.5,0.7-1.1,1-2,0.8c-0.1,0-0.2,0-0.2-0.1c-0.7-1.2-0.7-2.5-0.3-3.7
		c0.3-0.8,0.7-1.6,0.9-2.4c0.1-0.3,0.1-0.7,0.2-0.9c0.4-0.4,0.5-1.1,0.9-1.5c0.3-0.3,0.1-0.7,0.3-0.9c0.5-0.4,0.7-1.1,0.8-1.6
		c0.4-1.2,1-2.3,1.5-3.5c0.1-0.2-0.1-0.5,0.1-0.7c0.3-0.3,0.8-1.3,0.9-1.6c0-0.1,0-0.2,0.1-0.3c0.5-0.3,0.5-1,0.8-1.4
		c0.3-0.7,0.8-1.4,0.9-2.2c0-0.1,0.2-0.3,0.4-0.4c0.5-0.2,1-0.4,1.5-0.6c0.6-0.3,1.4-0.6,1.4-1.6c0,0,0.1-0.1,0.1-0.1
		c0.2-0.2,0.4-1.7,0.1-1.8c-0.3-0.2-0.3-0.5-0.3-0.8c0-0.2-0.1-0.5-0.1-0.7c0-1-0.8-1.9-0.9-2.9c-0.1-1-0.5-2-0.9-3
		c-0.3-0.7-0.6-1.5-0.9-2.2c-0.2-0.6-0.3-1.2-0.6-1.7c-0.3-0.4-0.5-1-0.5-1.6c0-0.5-0.5-0.5-0.4-0.9c0.1-0.7-0.4-1.3-0.5-2
		c0-0.2-0.2-0.2-0.4-0.3c-0.1,0-0.2,0-0.3-0.1c-1-1.1-2.5-1.2-3.7-0.5c-0.6,0.4-1.1,0.7-1.7,1.2c-0.8,0.7-1.6,1.4-2.3,2.1
		c-0.1,0.1,0,0.4-0.3,0.4c-0.5,0.1-0.6,0.5-0.8,0.9c-0.3,0.6-0.6,1.1-0.9,1.7c-0.4,1-1,2-1.5,3c-0.5,1-0.7,2.1-0.7,3.2
		c-0.1,1.2-0.3,2.4-0.2,3.5c0,0.1,0,0.3,0,0.4c-0.5,0.3-0.3,0.8-0.3,1.2c0,0.6,0.1,1.2,0.1,1.9c0,0.3,0.2,0.8-0.4,0.9
		c-0.1,0-0.1,0.3-0.1,0.3c0.5,0.2,0.2,0.4,0,0.6c0,0,0,0.1,0,0.2c0.3,2.2-0.1,4.4,0,6.6c0,0.2,0,0.4,0,0.5c-0.3,0.5-0.4,1.2-0.4,1.7
		c0,1.1-0.7,2.1-0.4,3.2c0,0,0,0,0,0.1c-0.5,0.5-0.5,1.2-0.7,1.8c-0.4,1-0.8,2.1-0.6,3.3c0,0.1,0.1,0.3-0.1,0.4
		c-0.3,0.2-0.4,0.5,0,0.7c0.2,0.1,0.2,0.3,0.1,0.3c-0.4,0.2-0.3,0.5-0.3,0.8c0,1.1,0.1,2.2,0.1,3.3c0,0.1,0.1,0.3,0,0.4
		c-0.6,1,0.2,2.1,0.1,3.1c0.6,0.2,0.3,0.7,0.4,1.1c0.1,0.3,0,0.6,0.1,0.9c0.2,0.6,0.3,1.2,0.5,1.8c0.1,0.4,0.3,0.8,0.4,1.2
		c0.2,0.8,0.4,1.6,0.6,2.5c0.1,0.5,0.4,0.7,0.6,1.1c0.2,0.5,0.4,1,0.8,1.5c0.5,0.7,0.9,1.4,1.3,2.1c0.4,0.9,1,1.7,1.9,2.3
		c0.9,0.7,1.8,0.9,2.9,0.9C325.9,260.8,326.4,260.5,327,260.5z M353.4,176.2c-0.4-1-0.8-1.9-1.5-2.6c-0.3-0.3-0.5-0.7-1-0.9
		c-0.7-0.3-1.3-0.7-2.1-0.8c-0.5,0-1.1-0.4-1.7-0.4c-0.4,0-0.9,0-1.3,0c-0.2,0-0.2-0.2-0.5-0.1c-0.6,0.2-1.1,0.7-1.7,0.6
		c-0.2,0-0.3,0.2-0.5,0.4c-0.4,0.4-0.6,1.1-1.3,1.3c-0.3,0.1-0.6,0.3-0.6,0.7c0,0.1,0,0.3-0.1,0.3c-1.2,0.6-0.8,2-1.3,3
		c-0.4,0.8,0,1.9-0.3,2.9c-0.2,0.9,0.2,2-0.2,2.9c-0.1,0.4,0.1,0.9,0.2,1.3c0.2,0.8,0.3,1.4,0.8,2.1c0.6,0.8,1.2,1.5,1.8,2.3
		c0.3,0.4,0.7,0.8,0.9,1.2c0.4,0.9,1.1,1.2,1.8,1.7c0.5,0.4,1.1,0.9,1.6,1.4c0.5,0.5,1.1,0.8,1.6,1.1c0.4,0.3,1.1,0,1.5,0.5
		c0.9-0.2,1.6,0.6,2.6,0.2c0.8-0.3,1.7-0.4,2.6-0.7c0.1,0,0.2-0.1,0.2-0.1c0.8-0.3,1.2-0.9,1.7-1.5c0.4-0.6,1-0.9,1.3-1.7
		c0.4-1,0.3-1.9-0.1-2.8c-0.1-0.3-0.1-0.6-0.3-0.9c-0.7-0.7-1.3-1.5-1.8-2.4c-0.5-0.8-1-1.6-1.2-2.5c-0.2-0.9-0.6-1.8-0.4-2.6
		C354.1,178.9,353.9,177.6,353.4,176.2z"/>
	<path fill="#040000" d="M473.3,198.7c0-0.3,0-0.4,0-0.6c-0.1-0.9,0.4-1.5,0.8-2.2c0.5-0.9,1.3-0.8,2.1-1c1-0.2,2-0.1,3-0.1
		c0.2,0,0.4,0.1,0.5-0.2c0.1-0.3,1.4-0.2,1.6,0.1c0.1,0.1,0.2,0.2,0.3,0.1c0.2-0.4,0.5-0.3,0.8-0.3c0.8,0,1.5,0,2.3,0
		c0.8,0,1.3-0.3,1.9-0.7c1-0.6,1.7-1.6,2.8-1.9c0.6-0.1,0.9-0.7,1.6-0.6c0.5,0.1,1.1-0.4,1.6-0.6c0,0,0,0,0,0c0.4,0.5,0.7,0,1.1,0
		c0.9,0,1.7,0,2.6,0c0.3,0,0.7,0.2,1,0.3c0.4,0.2,0.7,0.4,1.2,0.4c0.4,0,0.5,0.4,0.7,0.6c0.6,0.7,1.4,1.3,1.6,2.3
		c0.2,0.8,0.2,1.6,0.1,2.4c-0.1,0.7-0.3,1.5-0.2,2.2c0.1,1.4-0.2,2.8-0.2,4.2c0,0.7,0.1,1.6-0.3,2.2c-0.5,0.8-0.4,1.7-0.8,2.5
		c-0.3,0.7-0.5,1.6-0.6,2.4c0,0.7-0.2,1.5-0.1,2.2c0.1,0.8,0.4,1.6,0.9,2c0.6,0.5,1.1,1.2,1.9,1.5c0.4,0.2,0.8,0.4,1.1,0.5
		c1,0.3,1.3,1.2,2,1.7c0.3,0.2,0.6,0.4,0.8,0.6c0.5,0.4,1,0.9,1.2,1.5c0.4,1.1,0.7,2.2,0.7,3.5c0,1.1-0.4,1.9-0.8,2.9
		c-0.2,0.5-0.5,1-0.5,1.5c0,1.2-0.1,2.4,0.2,3.5c0,0.1,0,0.3,0,0.4c0,1.2,0.4,2.3,0.8,3.4c0.2,0.3,0.1,0.7,0.3,1.1
		c0.2,0.5,0.5,1,0.4,1.5c-0.1,0.4,0.2,0.6,0.3,0.9c0.3,0.9,0.3,1.9,0.8,2.7c0.4,0.6,0.9,1.1,1.6,1.3c0.9,0.3,1.6-0.3,2.3-0.4
		c1-0.2,1.4-1.1,2.2-1.5c0.3-0.2,0.7-0.3,0.9-0.6c0.5-0.6,1.1-1.1,1.6-1.7c0.3-0.3,0.6-0.4,0.9-0.6c0.6-0.4,1.3-0.3,2-0.3
		c0.1,0,0.2-0.1,0.2-0.2c0.1-0.3,0.2-0.2,0.4,0c0.3,0.3,0.7,0.5,1,0c0.1-0.1,0.3-0.1,0.3-0.1c0.2,0.6,0.8,0.5,1.2,0.6
		c0.7,0.2,0.8,0.9,1.2,1.3c0.4,0.4,0.4,1,0.5,1.6c0.1,0.3-0.1,0.7,0.4,1c0.2,0.1,0.2,0.7,0.2,1c0.1,1,0.5,1.9,0.4,2.9
		c-0.3,1.9-0.2,3.7-0.2,5.6c0,0.4-0.3,0.8-0.5,1.2c-0.4,0.9-0.9,1.8-1.4,2.6c-0.7,0.9-1.5,1.9-2.6,2.4c-0.7,0.3-1.4,0.6-2.1,0.9
		c-0.4,0.2-0.9,0.4-1.4,0.3c-0.3-0.1-0.4,0.4-0.8,0.2c-0.3-0.1-0.6-0.5-1,0c-0.3-0.3-0.7-0.3-1.1-0.2c-1.2,0.1-2.3-0.3-3.4-0.4
		c-0.7-0.1-1.4-0.1-2-0.4c-0.8-0.3-1.7,0-2.5-0.6c-0.5-0.3-1.2-0.6-1.8-0.8c-0.6-0.2-0.8-0.7-1.2-1c-0.6-0.4-1-1-1.5-1.5
		c-0.2-0.2-0.5-0.1-0.7-0.3c-0.8-0.8-1.2-1.9-1.9-2.8c-0.6-0.8-1.2-1.6-1.7-2.4c-0.3-0.5-0.2-1.1-0.3-1.7c-0.1-0.4,0-0.8-0.1-1.2
		c0-0.3,0.2-0.7-0.3-0.8c0,0-0.1-0.2-0.1-0.2c0.1-0.9-0.2-1.7-0.2-2.5c0-0.5,0.2-1-0.4-1.4c0.1-0.8-0.4-1.6,0.2-2.4
		c0.2-0.2,0.1-0.7,0-1c-0.1-2.3,0.1-4.6-0.1-6.9c0-0.2-0.1-0.5,0.2-0.6c0.2-0.1,0.1-0.3,0.1-0.5c0-1.1-0.1-2.2-0.1-3.2
		c0-0.7-0.3-1.1-0.6-1.6c-0.1-0.2-0.3-0.3-0.4,0c0,0.3-0.2,0.4-0.4,0.6c-0.4,0.4-0.5,0.8-0.6,1.3c-0.2,0.9-0.2,1.9-0.6,2.8
		c-0.2,0.5-0.1,1.2-0.1,1.8c0,0.2,0.2,0.5-0.3,0.6c-0.2,0-0.1,0.3-0.1,0.4c0.1,1-0.2,2-0.3,3c-0.1,0.8-0.3,1.6-0.4,2.3
		c-0.1,0.5-0.3,1.1-0.5,1.7c-0.2,0.5-0.5,1-0.6,1.6c-0.1,0.6-0.4,1.2-0.8,1.6c0,0-0.1,0.2-0.1,0.2c0.1,0.7-0.5,1.2-0.7,1.8
		c-0.4,0.9-1.2,1.5-1.4,2.5c0,0.1-0.1,0.1-0.2,0.2c-0.9,0.6-1.8,1.4-2.5,2.2c-0.3,0.3-0.6,0.6-0.9,0.7c-0.9,0.4-1.6,1.1-2.6,1.4
		c-1.1,0.3-2.2,0.4-3.4,0.2c-0.3,0-0.8-0.4-1.1-0.7c0-0.1,0-0.2-0.1-0.2c-0.6,0.1-0.7-0.4-0.9-0.8c-0.3-0.5-0.4-1.1-0.6-1.6
		c-0.4-1.3,0-2.5,0.1-3.7c0.1-1.2,0.6-2.4,0.8-3.6c0.2-0.9,0.4-1.8,0.7-2.6c0.4-1.1,0.5-2.2,0.9-3.2c0.4-0.9,0.4-1.9,0.8-2.8
		c0.2-0.6,0.2-1.3,0.5-1.9c0.4-0.8,0.4-1.8,0.7-2.6c0.4-0.9,0.3-1.9,0.8-2.8c0.3-0.6,0.3-1.3,0.5-1.9c0.3-1.2,0.6-2.3,0.8-3.5
		c0-0.3,0.3-0.5,0.4-0.8c0.2-0.6,0-1.3,0.3-1.7c0.5-0.6,0.3-1.4,0.6-2.1c0.2-0.4,0-0.9,0.2-1.4c0.4-0.7,0.2-1.5,0.6-2.2
		c0.1-0.2,0-0.6,0-0.9c0-0.1,0-0.2-0.1-0.2c-0.4,0.1-0.9-0.1-1.3,0.1c-0.6,0.2-1.2,0.2-1.8,0c-0.6-0.1-1.1-0.4-1.6-0.6
		c-0.6-0.3-1.2-0.5-1.7-0.9c-0.5-0.4-1.1-0.7-1.6-1.1c-0.5-0.4-1-0.9-1.5-1.4c-0.3-0.4-0.7-0.8-1-1.2c-0.3-0.3-0.4-0.9-0.9-1.1
		c-0.3-0.1-0.1-0.5-0.3-0.7c-0.5-0.6-0.6-1.4-0.9-2.1C473.3,199.8,473.4,199.2,473.3,198.7z M453.3,223.6c0.1-0.4-0.4-0.8-0.2-0.9
		c0.3-0.3,0.1-0.6,0.2-0.9c0.1-1.1-0.1-2.1,0.1-3.2c0.2-1.1,0-2.3,0.1-3.5c0.1-0.9,0-1.9-0.1-2.9c0-0.9-0.2-1.9,0.4-2.7
		c0.3-0.4,0.3-1.1,0.7-1.4c0.5-0.4,1-0.9,1.5-1.3c0.7-0.6,1.4-1.2,2.2-1.7c0.5-0.3,1-0.6,1.5-0.9c0.5-0.3,1.1-0.6,1.5-1
		c0.5-0.4,1-0.8,1.4-1.2c0.5-0.5,0.7-1.5,0.2-2c-0.8-0.9-2-0.9-3-1.2c-1-0.3-1.9,0.2-2.9,0.2c0,0-0.1,0-0.1,0
		c-0.5,0.3-1.1,0.4-1.7,0.6c-0.2,0.1-0.3,0.1-0.5,0.3c-0.5,0.4-1.1,0.8-1.7,0.8c-0.8,0.1-1.4,0.5-2,0.8c-0.2,0.1-0.4,0-0.6,0.2
		c-0.7,0.5-1.5,0.6-2.3,0.9c-0.2,0.1-0.6,0-0.7,0.2c-0.3,0.4-0.7,0.5-1.2,0.6c-0.2,0-0.6,0-0.7,0.2c-0.3,0.6-0.8,0.9-1.3,1.4
		c-0.3,0.3-0.4,0.6-0.4,1c0,1,0.2,1.9,0.3,2.8c0.3,1.6-0.1,3.3,0.6,4.9c0.2,0.5,0.3,1.1,0.4,1.7c0.1,0.5-0.1,1,0.3,1.4
		c0.2,0.2,0.2,0.4,0.2,0.6c0.1,0.7,0,1.3-0.3,2c-0.3,0.7-0.4,1.4-0.3,2.2c0,0.1,0,0.2-0.1,0.2c-0.5,0.1-0.3,0.4-0.3,0.7
		c-0.1,0.8,0,1.6-0.1,2.3c-0.2,0.8-0.2,1.7-0.3,2.5c-0.1,0.7-0.3,1.3-0.3,2c0,0.4-0.2,0.9-0.6,1.3c-0.2,0.2-0.6,0.1-0.7,0.3
		c-0.3,0.6-1,0.7-1.4,0.8c-0.7,0.3-1.6,0.4-2.3,0.7c-1.2,0.5-2.4,0.7-3.5,1.2c-1,0.4-2,0.8-3.1,0.9c-0.1,0-0.2,0-0.3,0.1
		c-0.6,0.6-1.4,0.7-2,1.2c-0.6,0.5-1.6,0.8-1.9,1.7c0,0.1-0.1,0.1-0.2,0.2c-0.4,0.2-0.6,0.5-0.6,1c0,0.3,0.1,0.8,0,0.9
		c-0.5,0.2-0.3,0.6-0.3,0.9c0,0.7,0,1.4,0.4,2.1c0.4,0.8,0.9,1.3,1.6,1.7c0.8,0.5,1.7,0.9,2.5,1.3c1,0.5,1.9,1.2,3.1,1.3
		c0.4,0,0.6,0.4,1,0.5c0.9,0,1.8,0.1,2.7,0.1c0.9,0,1.7,0,2.6-0.1c0.4,0,0.6,0.1,0.5,0.5c-0.1,0.6-0.1,1.1-0.3,1.7
		c-0.2,0.8-0.2,1.7-0.3,2.5c-0.1,0.9-0.1,1.9,0.3,2.8c0.2,0.5,0.3,0.9,0.6,1.3c0.3,0.5,1,0.5,1.2,1c0.3-0.5,0.7,0.1,1,0
		c0.6-0.1,1.2,0.1,1.8-0.2c0.5-0.3,1.2-0.3,1.6-0.8c0.2-0.2,0.1-0.5,0.3-0.7c0.5-0.5,0.9-1.2,1.1-1.9c0.2-0.6,0.6-1.1,0.8-1.7
		c0.2-0.6,0.4-1.2,0.8-1.7c0.3-0.5,0.7-1.1,0.6-1.7c-0.1-0.8,0.4-1.5,0.2-2.3c0,0,0-0.1,0-0.1c0.5-0.6,0-1.3,0.4-2
		c0.3-0.6,0-1.4,0.4-2c0.2-0.2,0.1-0.3,0.4-0.1c0.8,0.4,0.9,1.6,1.9,1.8c0,0,0,0.1,0,0.2c0.1,0.6,0.6,0.7,1.1,0.8
		c0.5,0.1,0.9-0.4,1.4,0c0,0,0.2,0,0.3-0.1c0.4-0.2,0.8-0.4,1.2-0.4c0.5-0.1,0.9-0.2,0.9-0.8c0-0.1,0.1-0.3,0.1-0.4
		c0.2-0.5,0.7-0.9,0.8-1.4c0.2-0.7,0.3-1.4,0.6-2.1c0.6-1.1,1.1-2.3,1.6-3.4c0.3-0.6,0.6-1.3,1.1-2c0.1,2.7,0.2,5.3,0.3,7.9
		c0,1.1,0.1,2.2,0.1,3.3c0,1,0,1.9-0.8,2.6c-0.2,0.1-0.3,0.3-0.5,0.3c-0.2,0-0.3,0.2-0.4,0.4c-0.2,0.3-0.5,0.8-0.8,0.8
		c-0.6,0.1-0.9,0.6-1.2,1c-0.2,0.3-0.5,0.6-0.8,1c-0.1,0.1-0.3,0.2-0.3,0.4c0,1.2-0.2,2.5,0.4,3.7c0.5,0.9,0.7,1.9,1,2.8
		c0.3,1,0.6,2,1.1,2.9c0.3,0.5,0.7,1,1.1,1.4c0.6,0.5,1.3,0.9,1.9,1.3c0.7,0.4,1.4,0.7,2.2,0.7c0.6,0,1.1-0.1,1.6-0.3
		c0.7-0.3,1.4-0.6,1.8-1.1c0.4-0.5,0.7-1.1,1.4-1.3c0.1,0,0.1-0.1,0.1-0.2c0.4-1,0.9-2,1.3-3c0.3-0.8,0.5-1.5,0.7-2.3
		c0.2-0.9,0.5-1.7,0.5-2.6c-0.1-3.2-0.2-6.3-0.3-9.5c0-0.2-0.1-0.4,0.1-0.6c0.2-0.2,0.3-1.2,0.1-1.3c-0.4-0.1-0.3-0.3-0.3-0.6
		c-0.1-1.6-0.3-3.2-0.5-4.8c-0.1-1.2-0.7-2.4-0.2-3.7c0-0.1,0-0.3-0.1-0.3c-0.2-0.2-0.1-0.4-0.2-0.6c-0.1-0.4,0.2-0.8,0.2-1.2
		c0.1-0.7,0.3-1.3,0.7-2c0.5-0.8,1.1-1.8,0.7-2.9c-0.2-0.5-0.1-1-0.3-1.4c-0.2-0.3-0.3-0.7-0.4-1c-0.1-0.4-0.6-0.6-0.7-1
		c-0.2-0.6-0.7-0.9-1.1-1.2c-0.6-0.6-1.1-1.2-1.1-2.1c-0.2-4-0.3-7.9-0.4-11.9c0-0.5-0.2-1-0.4-1.5c-0.2-0.8-0.3-1.6-0.8-2.4
		c-0.3-0.5-0.2-1.1-0.8-1.4c-0.7-0.3-1.3-0.6-2-0.9c-0.6-0.2-1.1-0.3-1.6,0c-0.5,0.3-1,0.5-1.3,0.9c-0.2,0.3-0.4,0.7-0.5,1
		c-0.3,0.6-0.6,1.2-0.5,2c0.1,1.2,0.1,2.4,0.1,3.6c0,0.2-0.1,0.4-0.1,0.7c-0.2,0.6,0,1.4,0.1,2c0,0.2,0.2,0.7,0,0.9
		c-0.1,0.1-0.1,0.3,0,0.4c0.4,0.2,0.2,0.6,0.2,0.9c0.1,1.7,0.1,3.5,0.2,5.2c0,1,0,2-0.2,3c-0.1,0.4-0.3,0.6-0.6,0.8
		c-0.1-1.3-0.4-2.5-0.6-3.7c-0.2-0.8-0.5-1.6-0.4-2.4c0-0.1,0-0.2-0.1-0.2c0-0.6-0.6-1-0.6-1.7c0-0.5-0.2-0.7-0.7-0.9
		c-0.5-0.2-1-0.6-1.5-0.9c-0.8-0.4-1.5-0.4-2,0.3c-0.1,0.1-0.1,0.3-0.2,0.4c-0.9,0.3-1,1.4-1.7,1.9c-0.1,0,0,0.2-0.1,0.3
		c-0.1,0.6-0.3,1.3-0.5,1.9c-0.2,0.7-0.5,1.3-0.4,2.1c0.1,1.7,0.1,3.4,0.2,5.1c0,0.2,0.1,0.4-0.2,0.6
		C453.8,224.9,453.2,224.3,453.3,223.6z M487,169.7c-0.7,0-1.1,0.7-1.8,0.5c-0.1,0-0.2,0-0.2,0c0,0.5-0.6,0.9-0.6,1.3
		c0,0.7-0.1,1.3,0,2c0.1,1.1,0.4,2.1,0.8,3.1c0.1,0.2-0.1,0.5,0.1,0.6c0.5,0.3,0.5,0.8,0.5,1.1c0,1,0.5,1.9,0.8,2.8
		c0.1,0.3,0.4,0.8,0.8,0.9c0.3,0.1,0.5,0.2,0.7,0.3c0.3,0.2,0.8,0.3,1,0.5c0.2,0.3,0.3,0.3,0.5,0.3c0.3,0,0.8-0.2,1,0.3
		c0,0,0.3,0,0.3,0c0.2-0.5,0.7-0.3,1-0.4c0.4-0.1,0.6-0.5,1.1-0.6c0.7-0.2,1.4-0.5,1.8-1c0.4-0.5,0.9-0.8,1.3-1.2
		c1.7-1.5,1.9-3.5,1.1-5.7c-0.3-0.9-0.7-1.7-1.5-2.4c-0.5-0.4-1.1-0.6-1.4-1.2c-0.3-0.5-0.9-0.5-1.3-0.9c-0.2-0.2-0.6-0.4-1-0.5
		c-1-0.2-2-0.1-2.7-0.1C488.4,169.7,487.7,169.7,487,169.7z M455,188.7c0.4-0.2,0.8-0.6,1.2-0.9c0.7-0.5,0.8-1.4,1-2.2
		c0-0.1,0-0.3,0.1-0.4c0.3-0.7,0.2-1.4,0.1-2.1c-0.1-1-0.6-1.9-0.9-2.8c-0.1-0.2,0-0.4-0.1-0.5c-0.9-0.8-1.7-2-3.2-1.8
		c-0.6,0.1-1.2,0.1-1.8,0.2c-0.5,0.1-0.6,0.6-1.1,0.6c0,0.6-0.9,0.4-0.9,1c-0.7,0.2-1,1-1.7,1.3c-0.5,0.2-0.5,0.8-1,1
		c-0.9,0.5-1.2,1.5-1.4,2.4c-0.1,0.7-0.1,1.5,0.2,2.3c0.3,0.6,0.5,1.1,1,1.6c0.5,0.4,1.2,0.6,1.7,0.7c1,0.2,2,0.3,2.6,0.2
		C452.5,189.1,453.8,189.3,455,188.7z"/>
	<path fill="#040000" d="M213.5,203.6c-0.6,0.2-0.9,0.8-1.4,1.1c-0.6,0.4-0.5,1.1-0.9,1.4c-0.5,0.5-0.4,1.3-1,1.6c0,0,0,0,0,0
		c0.1,0.6-0.6,1-0.5,1.7c0.1,0.5,0.3,0.8,0.6,0.9c0.7,0.3,1.3,0.7,1.8,1.1c0.4,0.3,0.7,0.8,0.9,1.3c0.4,0.7,0.7,1.5,0.7,2.3
		c0,0.7,0.2,1.5-0.3,2.1c-0.3,0.5-0.1,1-0.4,1.5c-0.1,0.3,0,0.6-0.2,0.9c-0.1,0.1-0.1,0.5,0.1,0.6c0.4,0.1,0.8,0.2,1.1-0.1
		c0.4-0.4,0.7-0.9,1.4-0.8c0.6-0.9,1.6-0.1,2.4-0.5c0.1,0,0.3,0.1,0.3,0.2c-0.1,0.8,0.8,1.5,0.1,2.3c-0.1,0.1,0,0.4,0,0.6
		c0,0.2,0.1,0.6-0.3,0.5c0,0-0.1,0-0.1,0.1c0.1,0.7-0.5,1.1-0.8,1.7c-0.4,0.8-0.4,1.6-0.7,2.4c-0.1,0.3-0.1,0.7-0.2,1.1
		c-0.4,1.3-0.5,2.7-1.1,3.9c-0.4,0.8-0.6,1.8-0.9,2.7c-0.3,1.1-1,1.9-1.6,2.8c-0.8,1-1.7,1.8-2.4,2.8c-0.6,0.9-1.4,1.5-2.3,2
		c-0.8,0.5-1.7,0.8-2.5,1.3c-0.4,0.2-0.9,0.2-1.2,0.4c-0.6,0.4-1.4,0.3-1.9,0.7c-0.3,0.2-0.3,0.7-0.3,1c0,1.7,0.1,3.5,0.2,5.2
		c0,0,0.1,0,0.1,0.1c0.2,0,0.1-0.2,0.1-0.3c0-0.6,0.4-0.9,0.6-1.4c0.3-0.7,0.6-1.3,1.2-1.8c0.2-0.2,0.4-0.3,0.7-0.4
		c0.3,0,0.5-0.1,0.7-0.5c0.2-0.5,0.9-0.5,1.3-0.7c0.5-0.3,1.2-0.3,1.7-0.6c0.9-0.5,2-0.5,2.7-1.3c0,0,0,0,0,0
		c1.3-0.1,2.1-1.2,3.2-1.6c0.4-0.2,1-0.1,1.4-0.3c0.8-0.3,1.6-0.3,2.4-0.7c0.4-0.2,1-0.3,1.5-0.6c0.8-0.4,1.7-0.6,2.5-0.8
		c0.5-0.2,1.1,0,1.6-0.1c0.7-0.1,1.4,0.3,2.1,0.4c0.1,0,0.2,0,0.2,0.1c0.1,0.6,0.6,1,1,1.6c0.8,1.3,0.5,2.7,0.5,4.1
		c0,1-0.4,1.8-0.7,2.6c-0.2,0.6-0.7,1.1-1.4,1.5c-1,0.5-2.1,0.8-3.2,1.3c-0.7,0.3-1.5,0.5-2.1,0.9c-0.2,0.2-0.6,0.3-0.9,0.3
		c-0.8,0-1.5,0.4-2.1,0.7c-0.8,0.4-1.8,0.6-2.5,1.1c-0.8,0.6-1.7,0.9-2.6,1.4c-0.7,0.4-1.4,0.8-2.1,0.8c-1,0.1-2,0.4-3.1-0.3
		c-0.5-0.3-1.2-0.5-1.7-0.8c-0.6-0.4-1.1-0.9-1.5-1.6c-0.1-0.2-0.3-0.3-0.4-0.3c-0.2,0-0.1,0.3-0.1,0.4c0.1,1.8,0.1,3.5,0,5.3
		c-0.1,1-0.4,2.1-1.3,2.9c-0.6,0.5-1.3,0.8-2.1,0.8c-1.2-0.1-2.2-0.4-3.1-1.4c-0.6-0.6-0.8-1.5-1.4-2.2c-0.6-0.8-0.8-1.7-1.3-2.5
		c-0.1-0.1-0.1-0.3-0.1-0.4c0-0.9-0.5-1.7-0.8-2.6c-0.3-0.9-0.8-1.8-1.2-2.6c-0.3-0.7-0.7-1.5-1-2.3c-0.2-0.7-0.4-1.4-0.7-2
		c-0.4-0.8-0.8-1.6-1.3-2.3c-0.7-0.8-0.7-1.7-1.1-2.5c-0.5-1-0.6-2.2-1.1-3.2c-0.4-0.8-0.4-1.7-1-2.5c-0.2-0.3-0.2-0.7-0.3-1.1
		c-0.1-0.5-0.3-1.1-0.4-1.5c-0.2-0.8-0.1-1.7-0.7-2.3c0,0-0.1-0.1-0.1-0.2c0-0.9-0.2-1.8-0.5-2.6c-0.3-0.9-0.2-1.8-0.6-2.6
		c-0.6-1.4-0.4-2.8-0.6-4.1c-0.2-1.1-0.1-2.1,0.1-3.1c0.1-0.4,0.3-1,0.6-1.4c0.3-0.3,0.3-0.9,0.5-1.2c0.3-0.5,0.5-1.2,1.3-1.1
		c0.2-0.6,0.9-0.4,1.2-0.8c0.5-0.5,1.4-0.5,2.1-0.3c0.6,0.2,1.2,0.3,1.6,0.8c0.3,0.5,0.8,0.9,1.2,1.4c0.5,0.7,0.9,1.4,1.3,2.2
		c0.1,0.2,0,0.4,0.1,0.5c0,0.2-0.1,0.6,0.3,0.6c0,0,0.1,0.2,0.1,0.3c-0.1,0.7,0.1,1.4,0.2,2.1c0.2,0.6,0.1,1.3,0.5,1.8
		c0,0,0,0.1,0,0.2c-0.1,1,0.2,2.1,0.4,3.1c0.2,0.9,0,1.9,0.5,2.8c0,0,0,0,0,0.1c-0.1,1,0.4,1.9,0.3,2.9c-0.1,0.6,0.3,1.1,0.3,1.6
		c0,0.1,0.1,0.2,0.2,0.2c0.1,0,0.1-0.1,0.1-0.1c0.2-0.6,0.6-1.1,1-1.6c0.3-0.5,0.5-1,0.8-1.5c0.3-0.6,0.5-1.3,0.8-1.9
		c0.3-0.6,0.5-1.3,1.1-1.8c0.2-0.2,0-0.6,0.2-0.9c0.5-0.8,1-1.7,1.5-2.5c0.5-0.8,0.9-1.6,1.1-2.5c0.1-0.3,0-0.7,0.3-1
		c0.2-0.2-0.2-0.2-0.2-0.4c-0.3-1.1-1.1-1.5-2.1-1.8c-0.5-0.2-0.9-0.5-1.4-0.5c-0.1,0-0.4-0.4-0.4-0.7c-0.1-0.4-0.2-0.8-0.2-1.3
		c0-0.2,0.1-0.6-0.3-0.7c0,0-0.1-0.3-0.1-0.4c-0.1-0.7,0-1.5-0.2-2.2c-0.1-0.5-0.1-1.2,0.1-1.6c0.5-0.8,0.5-1.9,1.4-2.6
		c0.2-0.2,0.6-0.4,0.5-0.8c0-0.1,0.2-0.2,0.2-0.2c0.7,0,0.7-0.8,1.1-1.2c0.3-0.2-0.2-0.8-0.8-0.8c-0.4,0-0.9,0-1.3,0
		c-1.4,0.1-2.5-0.5-3.3-1.4c-0.7-0.7-1-1.7-0.9-2.7c0.1-0.8,0.5-1.5,0.4-2.2c0-1,0.9-1.6,1-2.5c0.7-0.2,1.1-0.9,1.6-1.4
		c0.5-0.4,1.1-0.5,1.6-0.9c0.1-0.1,0.3-0.1,0.4-0.1c0.6,0,1.1,0,1.7,0c0.3,0,0.6-0.1,0.7,0.3c0.1,0.2,1.5,0.1,1.7-0.1
		c0.1-0.1,0.1-0.1,0.2-0.2c0.9-0.1,1.7-0.6,2.3-1.1c0.1-0.1,0.3-0.2,0.2-0.4c0-0.2,0.1-0.2,0.2-0.3c0.8-0.2,1.6-0.6,2.4-0.9
		c0.2-0.1,0.4-0.1,0.6-0.1c0.3,0,0.6,0.1,0.7-0.4c0-0.1,0.1-0.1,0.2-0.1c0.2-0.1,0.6,0.1,0.7-0.2c0.1-0.5,0.1-1-0.1-1.5
		c-0.2-0.6-0.4-1.2-0.5-1.8c-0.3-1.2-0.3-2.4-0.3-3.6c0-0.7,0.3-1.2,1-1.4c0.3-0.1,0.3-0.4,0.5-0.6c0.1-0.1,0.2-0.2,0.4-0.2
		c0.5,0.2,0.9,0.2,1.4,0.2c0.3,0,0.8,0,1,0.2c0.4,0.3,0.8,0.4,1.3,0.5c0.5,0.1,1.1,0.5,1.2,0.8c0.2,0.6,1.1,0.4,1,1.1
		c0,0.2,0.5,0.3,0.7,0.5c0.2,0.2,0.3,0.3,0.4,0.6c0.2,0.6,0.7,1.2,0.8,1.9c0.1,0.4,0.3,0.9,0.6,1.2c0.4,0.5,0.6,1.1,0.7,1.6
		c0.2,0.7,0.5,1.4,0.7,2.1c0.3,1.1,0.6,2.1,1,3.2c0.2,0.5,0.3,1.2,0.7,1.7c0.2,0.3,0.2,0.8,0.3,1.2c0.3,1.1,0.7,2.3,1.1,3.4
		c0.3,0.7,0.3,1.6,0.8,2.2c0.4,0.4,0.2,1.1,0.9,1.3c0.2,0,0.2,0,0.3-0.1c0.4-0.2,0.5-0.8,1.1-0.8c-0.1-0.6,0.5-0.5,0.7-0.9
		c0.2-0.3,0.6-0.5,0.9-0.6c0.8-0.2,1.6-0.6,2.5-0.4c0.8,0.2,1.8,0.2,2.4,1.2c0.1,0.1,0.4,0.2,0.6,0.2c0.3-0.1,0.4-0.5,0.4-0.7
		c0-0.7,0.2-1.4-0.2-2.1c-0.1-0.1-0.1-0.4-0.1-0.6c0.1-1.7-0.4-3.4-0.5-5.1c-0.1-1-0.2-2-0.3-3.1c-0.4-2.2-0.5-4.5-0.6-6.7
		c0-0.1,0-0.3-0.2-0.3c-0.1,0-0.2-0.1-0.2-0.1c0.4-0.4-0.1-0.7-0.1-1.1c0.1-1.4-0.1-2.8-0.3-4.2c-0.1-0.6-0.3-1.3-0.6-1.9
		c-0.2-0.3-0.1-0.6-0.3-0.9c-0.6-1-1.5-1.4-2.4-1.8c-0.3-0.1-0.6-0.2-0.8-0.4c-0.1-0.1-0.3-0.1-0.3-0.1c-0.4,0.4-1,0.2-1.4,0.2
		c-1,0-1.9,0.3-2.8,0.8c-0.7,0.4-1.3,1-1.7,1.7c-0.1,0.2-0.3,0.1-0.4,0.2c-0.6,0.6-1.3,1-1.9,1.6c-0.1,0.1-0.4,0-0.6,0.1
		c-0.5,0.2-1.1,0.2-1.6,0.2c-0.6,0-1.3-0.2-1.9-0.5c-0.6-0.3-1.3-0.7-1.9-1c-1.2-0.6-2.4-1-3.2-2.2c-0.2-0.2-0.5-0.1-0.8-0.3
		c-0.5-0.4-0.6-1.1-1-1.6c-0.8-1-0.5-2.2-0.6-3.3c0-0.4,0.8-1.1,1.1-1.2c0.5-0.2,1-0.4,1.4-0.6c0.5-0.1,0.8-0.4,1.3-0.6
		c0.9-0.3,1.9-0.5,2.8-1c0.2-0.1,0.5-0.1,0.7,0c0.9,0.3,1.9,0,2.7,0.3c0.8,0.3,1.6-0.1,2.3,0.4c0.1,0,0.5,0.1,0.7,0.1
		c1-0.1,1.9,0.4,2.9,0.3c0.7-0.1,1.4,0,2.1,0.4c0.5,0.2,1.1,0.4,1.7,0.4c0.8,0,1.6,0.3,2.2,0.6c0.9,0.4,1.9,0.3,2.7,0.9
		c0.6,0.5,1.3,0.6,1.8,1.2c0.1,0.1,0.2,0.3,0.4,0.3c0.3,0,0.6,0.2,0.8,0.5c0.2,0.3,0.7,0.5,1,0.6c0.4,0.1,0.5,0.3,0.8,0.4
		c0.5,0.3,1.1,0.5,1.6,0.7c0.9,0.3,1.8,0.6,2.5,1.3c0.3,0.3,0.7,0.4,1,0.6c0.3,0.1,0.4,0.3,0.4,0.6c0.1,0.6,0.2,1.1,0.5,1.7
		c0,0.1,0.1,0.2,0,0.3c-0.4,0.4-0.2,0.9-0.2,1.4c0.1,0.8-0.3,1.4-0.3,2.2c0,0.2-0.1,0.1-0.2,0.2c-0.3,0.2-0.5,0.4-0.5,0.8
		c0,0.2,0.1,0.4-0.3,0.4c-0.2,0-0.2,0.3-0.2,0.5c0,1.2,0.1,2.4,0.1,3.6c0,0.2,0,0.4,0.3,0.4c0.3,0,0.2,0.2,0.2,0.4
		c0,0.2-0.1,0.4,0.1,0.5c0.5,0.2,0.6,0.7,0.9,1.1c0.5,0.6,0.8,1.4,1.3,1.9c0.4,0.5,0.3,1.3,1,1.6c0.2,0.1,0.1,0.3,0.1,0.5
		c0,0.9,0,1.7,0.1,2.6c0.1,2.1,0.5,4.3,0.5,6.4c0.9,1.8,0.3,3.6,0.6,5.4c0.2,1.3,0.1,2.7,0.1,4c0.3,6.8,0.5,13.7,0.7,20.5
		c0,0.3,0.2,0.7-0.3,0.9c-0.1,0,0,0.3,0,0.4c0,1,0,2,0.1,3c0.2,2.2-0.2,4.3-0.1,6.5c0,0.6,0,1.2,0,1.8c0,0.4-0.4,0.7-0.4,1.1
		c-0.1,0.7-0.4,1.3-0.9,2c-0.4,0.5-0.9,1-0.9,1.7c0,0.2-0.2,0.1-0.3,0.2c-0.2,0.2-0.5,0.4-0.4,0.7c0,0.2,0,0.4-0.3,0.4
		c-0.2,0-0.2,0.3-0.2,0.4c0,0.3,0,0.6,0,0.9c0.1,0.8-0.1,1.6-0.2,2.4c-0.2,1.1-0.7,2.1-1.3,3.1c-0.3,0.5-0.5,0.9-0.8,1.4
		c-0.5,0.6-1.2,1-2,1.1c-0.4,0-0.8-0.1-1.2,0.1c-0.4,0.2-1.2,0.7-1.6,1c-0.4,0.3-0.7,0.6-1,0.8c-0.5,0.3-0.9,0.7-1.3,1
		c-0.9,0.8-1.9,1.1-3.1,0.8c-1.3-0.3-2.3-1.1-3.3-2c-0.2-0.2-0.3-0.7-0.3-0.9c-0.1-0.6-0.3-1.1-0.4-1.7c-0.1-0.8,0-1.5-0.8-2.3
		c-0.6-0.6-0.8-1.7-1.1-2.5c-0.5-1-0.2-2-0.4-3c0-0.2-0.2-0.5,0.2-0.6c0.2,0,0.1-0.3,0.1-0.4c0-0.6,0-1.2,0.3-1.7
		c0.2-0.4,0.5-0.6,0.8-0.8c1.1-0.9,2.5-0.5,3.8-0.6c0.1,0,0.4,0,0.4,0c0.3-0.7,1.3-0.8,1.4-1.6c0.2-0.9,0.8-1.5,1.1-2.3
		c0.3-1,1.1-1.8,0.9-2.9c0.6-0.6,0.2-1.4,0.6-2.1c0.2-0.3,0.2-0.7,0.2-0.9c0-0.5,0.3-1,0.3-1.6c-0.1-0.8,0.1-1.6,0.4-2.3
		c0-0.1,0-0.1,0-0.2c-0.2-0.9,0.1-1.8,0.2-2.7c0.1-0.6,0-1.3,0.3-1.9c0.1-0.1,0-0.3,0-0.4c-0.1-0.9-0.2-2,0.1-2.8
		c0.6-1.6,0-3.2,0.2-4.8c0.1-0.8,0.1-1.7-0.1-2.5c-0.1-0.3,0.1-0.6,0.1-0.9c0-1.2-0.1-2.4-0.3-3.5c-0.2-0.8-0.2-1.6-0.4-2.3
		c-0.1-0.3-0.1-0.6-0.1-0.9c0.1-0.6-0.5-1-0.3-1.6c0-0.1-0.1-0.1-0.2-0.1c-0.1,0-0.2,0-0.2,0.1c0.1,0.3-0.2,0.4-0.3,0.6
		c-0.3,0.9-0.6,1.7-1.1,2.5c-0.2,0.4-0.1,1-0.4,1.4c-0.4,0.8-0.7,1.6-1.1,2.4c-0.3,0.6-0.3,1.3-0.4,2c-0.1,0.5-0.4,1-0.4,1.5
		c-0.2,1.1-0.1,2.1,0.1,3.1c0,0,0.1,0.1,0.1,0.2c0.6,2,1.3,3.9,2.4,5.6c0,0.1,0,0.2,0.1,0.2c0.1,1.2,0.2,2.5,0.1,3.7
		c-0.1,0.6-0.4,1.2-0.5,1.8c-0.1,0.9-0.9,1.3-1.3,1.9c-0.2,0.3-0.8,0.5-1.4,0.6c-1.2,0.3-2.3,0.1-3.4-0.1c-0.5-0.1-1.1-0.3-1.4-1
		c-0.2-0.5-0.7-0.9-1-1.4c-0.5-1.1-1.1-2.1-1.7-3.1c-0.4-0.8-0.8-1.6-1.4-2.2c-0.3-0.3-0.6-0.2-0.9,0c-0.3,0.2-0.6,0.4-0.9,0.6
		c-0.9,0.6-1.9,0.5-2.9,0.5c-0.7,0-1.3-0.8-1.3-1.5c0-0.7,0-1.3-0.1-2c-0.1-0.4,0.1-0.9,0.3-1.1c0.4-0.3,0.5-0.8,0.9-1.2
		c0.4-0.4,0.8-1,1.1-1.5c0.6-0.7,0.5-1.5,0.4-2.3c-0.1-1-0.5-1.9-0.9-2.8c-0.2-0.6-0.7-1.1-1-1.6c-0.2-0.3-0.2-0.6-0.3-0.9
		c-0.4-0.8-0.5-1.7-0.9-2.5c-0.6-1.2-1-2.5-1.6-3.7c-0.6-1-1.1-2.1-1-3.3c0.1-0.7,0.3-1.5-0.3-2.2
		C214.1,204.6,213.3,204.1,213.5,203.6z M224.3,185.1c-0.3,0.3-0.6,0.5-0.7,1c-0.1,1,0.3,1.8,1.1,2.4c0.6,0.4,0.8,1,0.8,1.5
		c0,1.2,0.7,1.9,1.5,2.4c0.6,0.4,2.1,0.2,2.6-0.4c0.5-0.7,1-1.5,1.5-2.2c0.4-0.6,0.9-1.2,1.1-1.9c0.2-0.4,0.7-0.6,0.6-1.2
		c-0.1-0.3-0.3-0.4-0.3-0.7c0-1.1-0.9-1.4-1.7-1.8c-0.9-0.4-2-0.6-3.2-0.7C226.5,183.9,225.2,184,224.3,185.1z"/>
</g>
<g>
	<path fill="#040000" d="M206.1,330.8c-3.1,5.4-7.5,8.9-12,8.9c-7.5,0-12.4-9.7-11-21.7c1.4-12,8.6-21.7,16.1-21.7
		c4.5,0,8,3.5,9.9,8.9l5.3-2c-2.7-9.7-9.5-16.2-18.2-16.2c-12.6,0-24.5,13.9-26.5,31c-2,17.1,6.6,31,19.2,31c8.7,0,17-6.6,22-16.2
		L206.1,330.8z"/>
	<path fill="#040000" d="M389.2,330.8c-3.1,5.4-7.5,8.9-12,8.9c-7.5,0-12.4-9.7-11-21.7c1.4-12,8.6-21.7,16.1-21.7
		c4.5,0,8,3.5,9.9,8.9l5.3-2c-2.7-9.7-9.5-16.2-18.2-16.2c-12.6,0-24.5,13.9-26.5,31c-2,17.1,6.6,31,19.2,31c8.7,0,17-6.6,22-16.2
		L389.2,330.8z"/>
	<path fill="#040000" d="M251.7,347.6h13.5l0.9-59.2h-14.5l-29.9,59.2h8.5l7.3-14.1h14.7L251.7,347.6z M241.3,326l11.6-22.4
		l-0.6,22.4H241.3z"/>
	<path fill="#040000" d="M313.6,347.6h13.5l0.9-59.2h-14.5l-29.9,59.2h8.5l7.3-14.1H314L313.6,347.6z M303.2,326l11.6-22.4
		l-0.6,22.4H303.2z"/>
</g>
</svg>
